<svg width="445" height="502" viewBox="0 0 445 502" fill="none" xmlns="http://www.w3.org/2000/svg">
<g clip-path="url(#clip0_62_363)">
<path fill-rule="evenodd" clip-rule="evenodd" d="M140.486 195.522L215.441 153.607V74.8016C206.731 73.2508 198.845 68.6807 193.163 61.8921L73.0787 131.465C74.5068 135.468 75.2821 139.758 75.2821 144.251C75.2821 148.01 74.7516 151.605 73.7316 155.037L140.486 195.522ZM186.797 50.9844C185.204 46.7396 184.389 42.2418 184.39 37.7072C184.39 27.2897 188.593 17.8527 195.407 11.0303C202.221 4.20785 211.646 0 222.051 0C232.456 0 241.882 4.20785 248.696 11.0303C252.197 14.5312 254.972 18.6901 256.863 23.2682C258.753 27.8462 259.722 32.7532 259.713 37.7072C259.713 42.2827 258.897 46.654 257.428 50.6984L378.083 120.557C378.94 119.535 379.797 118.514 380.735 117.575C384.232 114.069 388.386 111.291 392.958 109.398C397.531 107.505 402.432 106.535 407.38 106.544C417.784 106.544 427.21 110.752 434.024 117.575C437.525 121.075 440.3 125.234 442.191 129.812C444.082 134.391 445.05 139.298 445.041 144.251C445.041 154.669 440.838 164.065 434.024 170.888C428.168 176.758 420.535 180.522 412.317 181.591V320.123C420.763 321.226 428.312 325.107 434.024 330.827C440.838 337.649 445.041 347.086 445.041 357.463C445.045 362.416 444.074 367.321 442.183 371.898C440.292 376.474 437.518 380.633 434.02 384.135C430.522 387.638 426.368 390.415 421.797 392.308C417.226 394.202 412.327 395.174 407.38 395.17C401.794 395.179 396.277 393.94 391.23 391.544C386.183 389.148 381.734 385.656 378.205 381.321L257.387 451.261C258.856 455.305 259.672 459.677 259.672 464.252C259.672 474.669 255.469 484.107 248.655 490.929C245.158 494.434 241.004 497.213 236.432 499.106C231.859 500.999 226.958 501.968 222.01 501.959C211.606 501.959 202.18 497.751 195.366 490.929C188.552 484.107 184.349 474.669 184.349 464.252C184.349 459.595 185.206 455.101 186.757 450.975L66.7134 381.484C63.1817 385.786 58.7399 389.249 53.7087 391.623C48.6775 393.997 43.1826 395.222 37.6207 395.211C27.2159 395.211 17.7903 391.003 10.9762 384.18C4.20286 377.358 0.0001299 367.921 0.0001299 357.503C0.0001299 347.086 4.20286 337.69 11.017 330.867C16.8068 325.065 24.3265 321.307 32.4387 320.164V181.55C24.3209 180.425 16.7958 176.665 11.017 170.847C7.51357 167.356 4.73604 163.205 2.84504 158.633C0.954046 154.061 -0.0128973 149.159 0.0001299 144.211C0.0001299 133.793 4.20286 124.356 11.017 117.534C14.5136 114.029 18.6675 111.25 23.24 109.357C27.8125 107.464 32.7136 106.494 37.6615 106.503C43.2571 106.494 48.7841 107.736 53.8388 110.139C58.8934 112.542 63.3479 116.046 66.8766 120.393L186.797 50.9844ZM251.103 61.647C245.384 68.6282 237.345 73.3128 228.457 74.8425V153.607L303.25 196.993L372.003 157.202C370.493 153.157 369.718 148.745 369.718 144.211C369.718 139.799 370.493 135.509 371.881 131.587L251.103 61.647ZM400.81 181.346C393.2 180.021 386.186 176.367 380.735 170.888C379.96 170.111 379.225 169.335 378.532 168.477L309.901 208.186V293.078L378.817 332.91C379.429 332.216 380.041 331.521 380.694 330.867C386.151 325.395 393.162 321.743 400.769 320.409V181.346H400.81ZM371.962 370.372C370.493 366.369 369.718 362.038 369.718 357.544C369.718 352.805 370.575 348.271 372.207 344.063L305.535 305.539L228.457 350.395V427.158C237.345 428.687 245.384 433.372 251.103 440.353L371.962 370.372ZM193.163 440.067C198.845 433.279 206.731 428.708 215.441 427.158V350.027L138.078 305.089L72.4259 343.042C74.262 347.495 75.3229 352.397 75.3229 357.544C75.3229 362.12 74.5068 366.491 73.0379 370.536L193.163 440.067ZM43.9044 320.327C51.7794 321.635 58.8384 325.434 64.2652 330.867C64.6732 331.276 65.0405 331.684 65.4077 332.093L132.284 293.446V205.735L67.8967 166.68C66.795 168.191 65.5709 169.58 64.2652 170.888C58.7329 176.428 51.6181 180.111 43.9044 181.428V320.327ZM37.7023 168.886C37.8655 168.886 38.0287 168.845 38.1919 168.845H38.5184C44.7537 168.649 50.6791 166.077 55.0845 161.655C57.3763 159.367 59.1941 156.648 60.4335 153.654C61.6729 150.66 62.3095 147.451 62.3067 144.211C62.3067 137.388 59.532 131.219 55.0845 126.766C50.6369 122.313 44.4756 119.535 37.6615 119.535C30.8474 119.535 24.6861 122.313 20.2385 126.766C17.9467 129.055 16.1289 131.774 14.8895 134.767C13.6501 137.761 13.0136 140.97 13.0164 144.211C13.0164 151.033 15.791 157.202 20.2385 161.655C22.5298 163.953 25.2523 165.775 28.2494 167.016C31.2465 168.257 34.459 168.892 37.7023 168.886ZM239.433 446.89C237.148 444.595 234.432 442.775 231.442 441.534C228.452 440.293 225.247 439.656 222.01 439.659C215.196 439.659 209.035 442.437 204.588 446.89C200.14 451.343 197.365 457.511 197.365 464.334C197.365 471.156 200.14 477.325 204.588 481.778C209.035 486.231 215.196 489.009 222.01 489.009C228.825 489.009 234.986 486.231 239.433 481.778C243.881 477.325 246.656 471.156 246.656 464.334C246.656 457.511 243.922 451.343 239.433 446.89ZM239.433 20.263C237.148 17.9684 234.432 16.1484 231.442 14.9075C228.452 13.6666 225.247 13.0293 222.01 13.0321C215.196 13.0321 209.035 15.8101 204.588 20.263C200.14 24.716 197.365 30.8848 197.365 37.7072C197.365 44.5296 200.14 50.6984 204.588 55.1514C206.873 57.446 209.589 59.266 212.579 60.5069C215.569 61.7478 218.774 62.3851 222.01 62.3823C228.825 62.3823 234.986 59.6043 239.433 55.1514C241.725 52.8631 243.543 50.1441 244.782 47.1506C246.022 44.157 246.658 40.9478 246.656 37.7072C246.656 30.8848 243.922 24.716 239.433 20.263ZM424.762 340.1C422.476 337.806 419.761 335.986 416.771 334.745C413.781 333.504 410.575 332.866 407.339 332.869C400.525 332.869 394.363 335.647 389.916 340.1C387.624 342.388 385.806 345.107 384.567 348.101C383.327 351.095 382.691 354.304 382.694 357.544C382.694 364.367 385.468 370.536 389.916 374.988C392.201 377.283 394.917 379.103 397.907 380.344C400.897 381.585 404.102 382.222 407.339 382.219C414.153 382.219 420.314 379.441 424.762 374.988C427.054 372.7 428.871 369.981 430.111 366.988C431.35 363.994 431.987 360.785 431.984 357.544C431.984 350.722 429.25 344.553 424.762 340.1ZM55.0845 340.1C50.6369 335.647 44.4756 332.869 37.6615 332.869C30.8474 332.869 24.6861 335.647 20.2385 340.1C17.9467 342.388 16.1289 345.107 14.8895 348.101C13.6501 351.095 13.0136 354.304 13.0164 357.544C13.0164 364.367 15.791 370.536 20.2385 374.988C24.6861 379.441 30.8474 382.219 37.6615 382.219C44.4756 382.219 50.6369 379.441 55.0845 374.988C57.3763 372.7 59.1941 369.981 60.4335 366.988C61.6729 363.994 62.3095 360.785 62.3067 357.544C62.2935 351.003 59.6974 344.732 55.0845 340.1ZM385.387 155.363C385.713 155.69 385.958 156.099 386.203 156.507C386.448 156.916 386.611 157.324 386.774 157.774C387.712 159.163 388.773 160.47 389.916 161.655C392.201 163.949 394.917 165.769 397.907 167.01C400.897 168.251 404.102 168.889 407.339 168.886C414.153 168.886 420.314 166.108 424.762 161.655C427.054 159.367 428.871 156.648 430.111 153.654C431.35 150.66 431.987 147.451 431.984 144.211C431.984 137.388 429.209 131.219 424.762 126.766C422.476 124.472 419.761 122.652 416.771 121.411C413.781 120.17 410.575 119.533 407.339 119.535C400.525 119.535 394.363 122.313 389.916 126.766C387.624 129.055 385.806 131.774 384.567 134.767C383.327 137.761 382.691 140.97 382.694 144.211C382.734 148.255 383.714 152.014 385.387 155.363ZM144.484 292.057C145.411 293.055 146.022 294.307 146.239 295.652L216.135 336.791V255.576L144.484 212.884V292.057ZM297.741 213.987L228.335 255.616V336.873L297.741 295.816V213.987ZM221.929 163.371L154.196 203.938L222.296 244.995L288.438 204.795L221.929 163.371Z" fill="white"/>
</g>
<defs>
<clipPath id="clip0_62_363">
<rect width="445" height="502" fill="white"/>
</clipPath>
</defs>
</svg>
