<svg width="105" height="99" viewBox="0 0 105 99" fill="none" xmlns="http://www.w3.org/2000/svg">
<path d="M100.144 72.0848C98.7717 70.8345 97.0495 70.2582 95.2953 70.4641C92.3495 70.8084 88.4923 71.6213 84.4084 72.4819C78.8939 73.6442 73.1919 74.8458 68.8261 75.1246C65.055 75.3648 58.1872 74.3608 56.1525 73.2718C54.7801 72.5372 54.0123 71.6363 53.5822 70.8398H62.046C65.5378 70.8398 68.3783 67.9373 68.3783 64.3696V59.2885C68.3783 55.7208 65.5378 52.8185 62.046 52.8185H38.8454C37.8597 52.7875 26.0226 52.5597 17.8254 59.7044C16.3746 60.9688 15.2207 62.1636 14.3005 63.2493C13.3271 62.0064 11.8313 61.2079 10.1557 61.2079H2.59261C1.33765 61.2079 0.320312 62.2474 0.320312 63.5297V96.3311C0.320312 96.947 0.559877 97.5376 0.98577 97.973C1.4121 98.4084 1.99012 98.653 2.59261 98.653L10.1555 98.6527C13.0824 98.6527 15.4635 96.2197 15.4635 93.2291V91.4446C17.7252 91.5897 22.8509 92.1615 33.6984 94.2425C46.5085 96.7004 54.5018 97.5334 60.7995 97.5332C65.3129 97.5332 68.9562 97.1055 72.8753 96.5414C77.7201 95.8446 83.8135 94.0833 89.1895 92.5295C91.6782 91.8101 94.0289 91.1308 96.109 90.5948C101.714 89.1502 102.551 85.5387 102.551 83.5143V77.5993C102.551 75.5207 101.651 73.4591 100.144 72.0848ZM10.9192 93.2291C10.9192 93.6592 10.5766 94.009 10.1557 94.009L4.8649 94.0093V65.8518H10.1555C10.5764 65.8518 10.9189 66.2016 10.9189 66.6317V93.2291H10.9192ZM98.0067 83.5145C98.0067 84.0076 98.0067 85.3167 94.9979 86.092C92.8549 86.6443 90.4737 87.3325 87.9528 88.0611C82.7161 89.5747 76.7806 91.2903 72.2419 91.943C63.3005 93.2296 55.8454 93.7669 34.537 89.6789C23.5782 87.5764 18.139 86.9409 15.4635 86.7951V69.5557C15.5447 69.452 15.6198 69.3417 15.6845 69.2211C16.2666 68.1358 17.7021 65.9155 20.7746 63.2376C27.7805 57.1316 38.6111 57.4569 38.7178 57.4606C38.7472 57.4617 38.7766 57.4624 38.8061 57.4624H62.0462C63.032 57.4624 63.834 58.2817 63.834 59.2887V64.3698C63.834 65.377 63.032 66.1963 62.0462 66.1963H38.8061C37.5511 66.1963 36.5338 67.2358 36.5338 68.5182C36.5338 69.8005 37.5511 70.84 38.8061 70.84H48.7559C49.2231 72.7439 50.5123 75.4952 54.0438 77.3854C57.2738 79.1144 65.285 80.0049 69.1094 79.7595C73.7955 79.4605 79.6576 78.2251 85.3266 77.0301C89.3077 76.1909 93.068 75.3984 95.8119 75.0777C96.3901 75.011 96.8411 75.2973 97.1183 75.5503C97.6663 76.0498 98.0069 76.8353 98.0069 77.5997V83.5145H98.0067Z" fill="white"/>
<path d="M98.8202 0.287109H19.0096C15.7964 0.287109 13.1821 2.95835 13.1821 6.24167V44.4742C13.1821 47.7577 15.7964 50.4292 19.0096 50.4292H98.8202C102.033 50.4292 104.648 47.7577 104.648 44.4742V6.24145C104.648 2.95835 102.033 0.287109 98.8202 0.287109ZM87.5474 45.7853H30.2871C29.685 38.8626 24.4177 33.2937 17.7269 32.3886V17.6939C24.2121 16.8165 29.3591 11.5572 30.2176 4.93059H87.6169C88.4754 11.5558 93.6201 16.8143 100.103 17.6935V32.389C93.4147 33.2961 88.1495 38.8644 87.5474 45.7853ZM100.103 6.24145V12.9921C96.13 12.198 92.9931 8.99118 92.2175 4.93059H98.8202C99.5276 4.93082 100.103 5.5188 100.103 6.24145ZM19.0096 4.93082H25.6168C24.8412 8.99295 21.7022 12.2004 17.7267 12.9932V6.24145C17.7269 5.5188 18.3024 4.93082 19.0096 4.93082ZM17.7269 44.4742V37.0896C21.9067 37.923 25.161 41.4261 25.7165 45.7853H19.0096C18.3024 45.7853 17.7269 45.1971 17.7269 44.4742ZM98.8202 45.7853H92.118C92.6733 41.4277 95.9253 37.9252 100.103 37.0905V44.4742C100.103 45.1971 99.5276 45.7853 98.8202 45.7853Z" fill="white"/>
<path d="M59.0372 8.74731C50.0733 8.74731 42.7808 16.1987 42.7808 25.3578C42.7808 34.5172 50.0733 41.9688 59.0372 41.9688C68.0009 41.9688 75.2934 34.5172 75.2934 25.3578C75.2934 16.1989 68.0009 8.74731 59.0372 8.74731ZM59.0372 37.3253C52.5791 37.3253 47.3254 31.957 47.3254 25.3581C47.3254 18.7596 52.5791 13.3912 59.0372 13.3912C65.4951 13.3912 70.7488 18.7596 70.7488 25.3581C70.7488 31.9568 65.4951 37.3253 59.0372 37.3253Z" fill="white"/>
<path d="M32.8768 18.2162C29.0225 18.2162 25.8872 21.4199 25.8872 25.3582C25.8872 29.2963 29.0225 32.5 32.8768 32.5C36.7308 32.5 39.8661 29.2963 39.8661 25.3582C39.8661 21.4199 36.7308 18.2162 32.8768 18.2162ZM32.8768 27.8561C31.5288 27.8561 30.4318 26.7356 30.4318 25.358C30.4318 23.9804 31.5286 22.8597 32.8768 22.8597C34.225 22.8597 35.3216 23.9804 35.3216 25.358C35.3216 26.7356 34.225 27.8561 32.8768 27.8561Z" fill="white"/>
<path d="M85.1979 18.2162C81.3438 18.2162 78.2085 21.4199 78.2085 25.3582C78.2085 29.2963 81.3438 32.5 85.1979 32.5C89.0521 32.5 92.1876 29.2963 92.1876 25.3582C92.1876 21.4199 89.0521 18.2162 85.1979 18.2162ZM85.1979 27.8561C83.8496 27.8561 82.7531 26.7356 82.7531 25.358C82.7531 23.9804 83.8496 22.8597 85.1979 22.8597C86.5461 22.8597 87.6431 23.9804 87.6431 25.358C87.6431 26.7356 86.5463 27.8561 85.1979 27.8561Z" fill="white"/>
</svg>
