<svg width="40" height="40" viewBox="0 0 40 40" fill="none" xmlns="http://www.w3.org/2000/svg">
<path d="M22.0689 0C21.3647 0 20.6723 0.0524138 19.9896 0.144828C19.2778 0.0496552 18.6013 0 17.9309 0C12.8537 0 8.27507 2.46276 5.06197 6.38897C5.02955 6.41793 5.00611 6.45241 4.9799 6.4869C3.95576 7.75517 3.07576 9.17517 2.36404 10.7117C2.34611 10.7455 2.33024 10.7786 2.31714 10.8152C1.8268 11.889 1.41783 13.0172 1.10335 14.1924C1.07231 14.2586 1.05852 14.331 1.04955 14.4062C0.593692 16.1828 0.344727 18.0586 0.344727 20C0.344727 23.0372 0.946106 25.9166 2.01576 28.4972C2.02542 28.5248 2.03438 28.551 2.04749 28.5772C2.68886 30.1069 3.49576 31.529 4.44266 32.8152C4.4668 32.8483 4.4868 32.8834 4.51645 32.9117C5.47507 34.1979 6.57369 35.3434 7.78542 36.32C7.8199 36.3579 7.86128 36.3862 7.90404 36.4159C10.7502 38.6724 14.2061 40 17.9309 40C18.6013 40 19.2778 39.9503 19.9896 39.8552C20.6723 39.9476 21.3647 40 22.0689 40C31.7661 40 39.6551 31.0283 39.6551 20C39.6551 8.97172 31.7661 0 22.0689 0ZM14.7861 1.80276C14.5578 1.92138 14.3323 2.04552 14.1096 2.17448C13.9847 2.2469 13.8592 2.31655 13.7365 2.39241C13.5454 2.50966 13.3585 2.63379 13.1723 2.75862H11.8447C12.853 2.2869 13.9054 1.91517 15.0027 1.68414C14.9289 1.72069 14.8592 1.76483 14.7861 1.80276ZM7.83438 31.7241H5.36128C4.753 30.8648 4.213 29.9414 3.74404 28.9655H6.35645C6.46473 29.2097 6.57576 29.4517 6.69231 29.6903C6.74266 29.7931 6.79507 29.8945 6.84749 29.9966C6.98886 30.2738 7.13507 30.5462 7.28749 30.8145C7.34404 30.9145 7.39852 31.0159 7.45714 31.1152C7.57852 31.3214 7.70611 31.5228 7.83438 31.7241ZM3.42611 11.7241H6.06542C5.94473 12.0255 5.83024 12.3303 5.72197 12.6393C5.69231 12.7248 5.66197 12.8097 5.633 12.8952C5.53369 13.1917 5.44128 13.491 5.35369 13.7931H2.6599C2.87921 13.0821 3.13576 12.3924 3.42611 11.7241ZM1.72404 20C1.72404 19.5352 1.74886 19.0772 1.77783 18.6207H4.52749C4.5268 18.6317 4.5268 18.6428 4.52611 18.6538C4.50059 19.0993 4.48266 19.5469 4.48266 20C4.48266 20.231 4.49093 20.46 4.49783 20.6897H1.75093C1.74335 20.4593 1.72404 20.2324 1.72404 20ZM4.57645 22.069C4.60266 22.3593 4.63645 22.6476 4.67369 22.9345C4.67645 22.9552 4.67783 22.9766 4.68059 22.9979C4.73162 23.3814 4.79369 23.7614 4.86335 24.1379H2.14335C2.00886 23.4607 1.90266 22.7717 1.83438 22.069H4.57645ZM5.00404 15.1724C4.98611 15.2538 4.97093 15.3366 4.95438 15.4179C4.93576 15.509 4.91645 15.5993 4.89852 15.6903C4.81438 16.1228 4.7399 16.5593 4.68128 17.0021C4.67852 17.0228 4.67714 17.0441 4.67438 17.0655C4.66611 17.1241 4.66128 17.1828 4.65369 17.2414H1.91645C2.00749 16.5393 2.12266 15.8469 2.28059 15.1724H5.00404ZM5.16886 25.5172C5.19024 25.6014 5.21024 25.6869 5.23231 25.7703C5.24059 25.8007 5.24749 25.8324 5.25576 25.8628C5.36955 26.2828 5.49714 26.6959 5.63369 27.1041C5.66266 27.1903 5.693 27.2745 5.72266 27.36C5.74818 27.4359 5.77369 27.5117 5.80059 27.5862H3.14335C2.88197 26.9166 2.65714 26.2255 2.46542 25.5172H5.16886ZM7.45645 8.88552C7.39852 8.98414 7.34335 9.08621 7.2868 9.18621C7.13438 9.45448 6.98749 9.72759 6.8468 10.0041C6.79507 10.1062 6.74197 10.2069 6.69162 10.3103C6.68611 10.3214 6.6799 10.3331 6.67438 10.3448H4.08886C4.61093 9.36069 5.21231 8.44 5.87921 7.58621H8.29507C8.21093 7.7069 8.12611 7.8269 8.04404 7.94966C7.84059 8.25517 7.64473 8.5669 7.45645 8.88552ZM9.47025 4.13793H11.3751C11.204 4.28759 11.033 4.43793 10.8668 4.59448C10.7282 4.72552 10.5937 4.86138 10.4585 4.99724C10.322 5.13448 10.1868 5.27379 10.0544 5.41517C9.9268 5.55103 9.79921 5.68621 9.67507 5.82621C9.56473 5.95035 9.45921 6.07931 9.35231 6.2069H7.07507C7.81576 5.43655 8.61507 4.74207 9.47025 4.13793ZM6.43024 33.1034H8.79714C8.87507 33.2055 8.95231 33.3076 9.03231 33.4076C9.24059 33.6697 9.45507 33.9248 9.67507 34.1738C9.79852 34.3138 9.9268 34.449 10.0544 34.5848C10.1875 34.7269 10.3227 34.8662 10.4599 35.0034C10.5151 35.0586 10.5675 35.1179 10.6233 35.1724H8.54887C7.79093 34.5524 7.08266 33.86 6.43024 33.1034ZM15.002 38.3159C13.4206 37.9828 11.9261 37.3717 10.5399 36.5517H12.2082C12.2965 36.62 12.3875 36.6841 12.4765 36.7503C12.6192 36.8566 12.762 36.9634 12.9075 37.0648C13.1785 37.2538 13.4551 37.4352 13.7358 37.6076C13.8585 37.6828 13.984 37.7531 14.1089 37.8255C14.3316 37.9545 14.5571 38.0786 14.7854 38.1972C14.8592 38.2352 14.9289 38.2793 15.002 38.3159ZM22.0689 38.6207C21.5206 38.6207 20.9792 38.5883 20.4454 38.5269L20.1785 38.4897C20.1413 38.4848 20.1047 38.4786 20.0682 38.4738C19.8296 38.44 19.593 38.4007 19.3585 38.3552C19.3385 38.351 19.3192 38.3469 19.2999 38.3428C19.0716 38.2979 18.8454 38.2476 18.6213 38.1917C18.5875 38.1834 18.5537 38.1738 18.5199 38.1648C18.3109 38.111 18.1027 38.0545 17.8971 37.9917C17.8344 37.9724 17.7716 37.9503 17.7089 37.9303C17.533 37.8745 17.3578 37.8172 17.1847 37.7545C17.044 37.7034 16.9054 37.6469 16.7668 37.5917C16.6723 37.5545 16.5765 37.5193 16.4833 37.48C12.7751 35.911 9.6999 32.8262 7.82887 28.8828C7.81162 28.8469 7.79576 28.809 7.77921 28.7731C7.67921 28.5586 7.58197 28.3421 7.48887 28.1228C7.45162 28.0352 7.41714 27.9462 7.38128 27.8579C7.31162 27.6869 7.24266 27.5152 7.17783 27.3414C7.13576 27.2297 7.09645 27.1159 7.05645 27.0028C7.00197 26.8497 6.94818 26.6959 6.89783 26.5407C6.85645 26.4138 6.81714 26.2855 6.77783 26.1579C6.733 26.0124 6.68956 25.8662 6.64818 25.7193C6.60956 25.5848 6.573 25.4483 6.53783 25.3124C6.50059 25.1683 6.46473 25.0228 6.43024 24.8772C6.39714 24.7379 6.36542 24.5986 6.33507 24.4579C6.30335 24.311 6.27438 24.1634 6.24611 24.0152C6.21921 23.8738 6.19231 23.7324 6.16749 23.5897C6.14128 23.4372 6.11852 23.2841 6.09576 23.1303C6.07507 22.991 6.05369 22.8524 6.03576 22.7117C6.01438 22.5462 5.99783 22.3786 5.98059 22.2117C5.9668 22.0814 5.95162 21.9517 5.94059 21.8207C5.92404 21.629 5.913 21.4359 5.90197 21.2421C5.89576 21.1331 5.8868 21.0255 5.88197 20.9166C5.86955 20.6131 5.86197 20.3076 5.86197 20C5.86197 19.6924 5.86955 19.3869 5.88197 19.0828C5.8868 18.9738 5.89576 18.8655 5.90197 18.7572C5.913 18.5641 5.92404 18.3703 5.94059 18.1786C5.95162 18.0476 5.9668 17.9179 5.98059 17.7876C5.99783 17.6207 6.01507 17.4538 6.03576 17.2876C6.05369 17.1476 6.07507 17.0083 6.09576 16.869C6.11852 16.7152 6.14128 16.5621 6.16749 16.4097C6.19162 16.2669 6.21852 16.1255 6.24611 15.9841C6.27438 15.8359 6.30404 15.6883 6.33507 15.5414C6.36542 15.4007 6.39714 15.2614 6.43024 15.1221C6.46473 14.9766 6.50059 14.831 6.53783 14.6869C6.573 14.5503 6.60955 14.4145 6.64749 14.2793C6.68887 14.1324 6.73231 13.9862 6.77714 13.8407C6.81645 13.7124 6.85576 13.5848 6.89714 13.4579C6.94818 13.3028 7.00197 13.149 7.05645 12.9952C7.09645 12.8821 7.13576 12.769 7.17783 12.6572C7.24335 12.4834 7.31162 12.3117 7.38128 12.1407C7.41714 12.0524 7.45162 11.9634 7.48887 11.8759C7.58197 11.6566 7.67921 11.44 7.77921 11.2255C7.79645 11.189 7.81162 11.1517 7.82887 11.1159C9.6999 7.17241 12.7751 4.08828 16.4833 2.51862C16.5771 2.47931 16.6723 2.44414 16.7668 2.4069C16.9054 2.35172 17.044 2.29517 17.1847 2.24414C17.3578 2.18138 17.533 2.12483 17.7089 2.06828C17.7716 2.04828 17.8337 2.02621 17.8971 2.0069C18.1027 1.94414 18.3109 1.8869 18.5199 1.83379C18.553 1.82621 18.5868 1.81586 18.6206 1.80759C18.8447 1.75172 19.0709 1.70207 19.2992 1.65655C19.3192 1.65241 19.3385 1.64828 19.3578 1.64414C19.5923 1.59862 19.8289 1.55931 20.0675 1.52552C20.104 1.52 20.1413 1.51448 20.1778 1.50966L20.4447 1.47241C20.9792 1.41172 21.5206 1.37931 22.0689 1.37931C31.0054 1.37931 38.2758 9.73241 38.2758 20C38.2758 30.2676 31.0054 38.6207 22.0689 38.6207Z" fill="white"/>
<path d="M9.77042 20C9.77042 19.5662 9.78766 19.1303 9.82146 18.7041C9.85111 18.3248 9.56835 17.9924 9.18835 17.9621C8.80698 17.9345 8.47663 18.2159 8.44629 18.5952C8.40973 19.0566 8.39111 19.5297 8.39111 20V20.0145C8.39111 20.3952 8.70008 20.6966 9.08077 20.6966C9.46146 20.6966 9.77042 20.3807 9.77042 20Z" fill="white"/>
<path d="M33.8857 16.0635C33.9643 16.3766 34.245 16.5849 34.5539 16.5849C34.6098 16.5849 34.6663 16.578 34.7229 16.5642C35.0919 16.4711 35.316 16.0966 35.2236 15.7269C35.1077 15.2662 34.9719 14.8069 34.8188 14.3614C34.6953 14.0014 34.3036 13.8076 33.9429 13.9324C33.5829 14.0559 33.3905 14.4483 33.5139 14.8083C33.6539 15.2173 33.7788 15.64 33.8857 16.0635Z" fill="white"/>
<path d="M31.0497 29.6682C30.7739 30.0075 30.4821 30.3324 30.1828 30.6351C29.9146 30.9055 29.9166 31.342 30.187 31.6103C30.3215 31.7434 30.4973 31.8103 30.6725 31.8103C30.8497 31.8103 31.0277 31.742 31.1621 31.6061C31.4939 31.2717 31.8159 30.9124 32.1201 30.5386C32.3608 30.2427 32.3152 29.8082 32.0201 29.5682C31.7249 29.3275 31.2904 29.373 31.0497 29.6682Z" fill="white"/>
<path d="M10.2453 23.9097C10.1536 23.54 9.77775 23.3138 9.40948 23.4069C9.03982 23.4987 8.815 23.8731 8.90672 24.2428C9.0212 24.7028 9.15638 25.1628 9.30879 25.6097C9.40672 25.8966 9.67431 26.0773 9.9612 26.0773C10.035 26.0773 10.1102 26.0649 10.184 26.04C10.544 25.9173 10.7371 25.5255 10.6143 25.1649C10.475 24.7552 10.3509 24.3324 10.2453 23.9097Z" fill="white"/>
<path d="M28.8677 6.51657C28.465 6.25381 28.0443 6.01174 27.6181 5.79726C27.2774 5.62485 26.8636 5.76347 26.6919 6.10209C26.5201 6.44209 26.6567 6.85726 26.9967 7.0283C27.3781 7.22071 27.7539 7.43726 28.1146 7.67243C28.2305 7.7483 28.3615 7.78416 28.4905 7.78416C28.716 7.78416 28.9367 7.67381 29.0691 7.47105C29.2767 7.15243 29.187 6.72485 28.8677 6.51657Z" fill="white"/>
<path d="M27.0715 32.9331C26.688 33.1297 26.2921 33.3056 25.8949 33.4552C25.5383 33.589 25.3583 33.9869 25.4928 34.3435C25.597 34.62 25.859 34.7904 26.1383 34.7904C26.219 34.7904 26.3011 34.7759 26.3818 34.7456C26.828 34.5773 27.2721 34.3807 27.7018 34.16C28.0404 33.9862 28.1749 33.5704 28.0004 33.2318C27.8259 32.8931 27.4101 32.7587 27.0715 32.9331Z" fill="white"/>
<path d="M32.9172 10.5358C32.649 10.1393 32.3607 9.75375 32.06 9.38893C31.8179 9.09513 31.3827 9.05237 31.089 9.29513C30.7952 9.5372 30.7531 9.97168 30.9952 10.2662C31.2683 10.5979 31.5303 10.9489 31.7745 11.3089C31.9076 11.5062 32.1248 11.6117 32.3462 11.6117C32.4793 11.6117 32.6138 11.5731 32.7324 11.4931C33.0483 11.2793 33.131 10.851 32.9172 10.5358Z" fill="white"/>
<path d="M35.0571 19.2883C34.6764 19.2883 34.3674 19.6194 34.3674 20.0001C34.3674 20.4228 34.3509 20.8497 34.3184 21.2676C34.2895 21.6476 34.5729 21.9794 34.9529 22.0083C34.9709 22.0097 34.9888 22.0104 35.0067 22.0104C35.3633 22.0104 35.666 21.7359 35.6936 21.3738C35.7288 20.9201 35.7467 20.458 35.7467 19.9994V19.9545C35.7467 19.5745 35.4384 19.2883 35.0571 19.2883Z" fill="white"/>
<path d="M34.4145 24.6772C34.0531 24.5559 33.6628 24.7503 33.5407 25.111C33.4014 25.5241 33.2435 25.9345 33.0711 26.331C32.9193 26.68 33.0787 27.0869 33.4283 27.2386C33.518 27.2779 33.6118 27.2959 33.7035 27.2959C33.9697 27.2959 34.2228 27.1407 34.3359 26.8814C34.5242 26.449 34.6966 26.0007 34.8483 25.5503C34.9704 25.1897 34.7759 24.7986 34.4145 24.6772Z" fill="white"/>
<path d="M23.482 4.54826C23.0144 4.49377 22.5392 4.46619 22.0689 4.46619H22.0399C21.6592 4.46619 21.3647 4.77515 21.3647 5.15584C21.3647 5.53653 21.6882 5.8455 22.0689 5.8455C22.4861 5.8455 22.9082 5.86964 23.3234 5.91791C23.3503 5.92136 23.3772 5.92274 23.4041 5.92274C23.7489 5.92274 24.0475 5.66412 24.0882 5.31239C24.1316 4.93377 23.8606 4.5917 23.482 4.54826Z" fill="white"/>
<path d="M12.3469 28.6676C12.1338 28.351 11.7048 28.2683 11.3897 28.4814C11.0738 28.6945 10.9904 29.1227 11.2035 29.4386C11.4711 29.8352 11.7586 30.2214 12.0579 30.5869C12.1945 30.7531 12.3924 30.8393 12.5917 30.8393C12.7455 30.8393 12.9007 30.7883 13.029 30.6827C13.3235 30.4407 13.3662 30.0069 13.1248 29.7117C12.8524 29.3807 12.5904 29.0289 12.3469 28.6676Z" fill="white"/>
<path d="M10.7218 12.7345C10.3721 12.5828 9.96661 12.7407 9.8135 13.0904C9.62385 13.5242 9.45074 13.9717 9.29833 14.42C9.17626 14.7807 9.36936 15.1724 9.73005 15.2952C9.80316 15.32 9.87833 15.3317 9.95143 15.3317C10.239 15.3317 10.5073 15.1504 10.6045 14.8635C10.7438 14.4517 10.9032 14.0414 11.077 13.6428C11.2307 13.2938 11.0714 12.8869 10.7218 12.7345Z" fill="white"/>
<path d="M22.0688 34.1544C21.6398 34.1544 21.2088 34.1289 20.7874 34.0786C20.4115 34.0386 20.066 34.3034 20.0205 34.682C19.9757 35.06 20.2453 35.4034 20.6239 35.4489C21.0998 35.5055 21.5867 35.5344 22.0695 35.5344H22.1288C22.5095 35.5344 22.7888 35.2255 22.7888 34.8448C22.7888 34.4641 22.4495 34.1544 22.0688 34.1544Z" fill="white"/>
<path d="M12.9969 8.37167C12.6652 8.70616 12.3417 9.06409 12.0376 9.43719C11.7962 9.73236 11.8404 10.1668 12.1355 10.4075C12.2638 10.5124 12.4183 10.5634 12.5714 10.5634C12.7714 10.5634 12.9693 10.4772 13.1059 10.3103C13.3824 9.97167 13.6748 9.64685 13.9755 9.34478C14.2438 9.07443 14.2424 8.63788 13.9728 8.36891C13.7024 8.10064 13.2666 8.10271 12.9969 8.37167Z" fill="white"/>
<path d="M17.7855 5.24272C17.3387 5.41031 16.8938 5.60617 16.4642 5.82548C16.1249 5.99789 15.9897 6.41376 16.1628 6.75307C16.2842 6.99238 16.5262 7.12962 16.778 7.12962C16.8835 7.12962 16.9904 7.10548 17.0904 7.05445C17.4738 6.85927 17.8704 6.6841 18.2683 6.53514C18.6249 6.40134 18.8062 6.0041 18.6724 5.64755C18.54 5.28962 18.1414 5.10893 17.7855 5.24272Z" fill="white"/>
<path d="M17.1164 32.9593C16.7371 32.7669 16.3612 32.549 15.9999 32.3124C15.6805 32.1042 15.2543 32.1938 15.0447 32.5118C14.8364 32.8304 14.9254 33.258 15.244 33.4662C15.6474 33.7304 16.0674 33.9738 16.4916 34.189C16.5916 34.24 16.6985 34.2635 16.8033 34.2635C17.055 34.2635 17.2971 34.1255 17.4192 33.8862C17.5916 33.5469 17.4557 33.1318 17.1164 32.9593Z" fill="white"/>
</svg>
