<svg width="100" height="103" viewBox="0 0 100 103" fill="none" xmlns="http://www.w3.org/2000/svg">
<path d="M19.4291 0.373065C17.6568 0.381662 15.8929 0.552098 14.1509 0.896623C36.636 14.7264 53.4258 33.2128 66.6765 54.5944C67.2078 43.04 62.6653 31.1396 55.4165 21.4422C52.4513 22.5809 48.7956 21.6017 46.2735 19.0243C43.7536 16.4495 42.7907 12.7169 43.9005 9.68835C36.3857 3.89462 27.8081 0.33008 19.4291 0.373065ZM99.4757 4.75862L84.5552 21.4422L90.8779 48.4288L79.29 50.3159L75.208 67.6445L90.6678 76.0532L81.9914 88.0755L88.2296 97.5393L69.5554 91.602L73.0259 82.1788L56.8958 74.9048L59.6562 56.7301L36.2299 69.2227L35.3422 86.0406L11.7381 80.0966L4.7444 102.482H99.4755L99.4757 4.75862ZM50.4144 9.185C50.3328 9.18715 50.2512 9.19102 50.1713 9.1979C49.4048 9.26775 48.7237 9.56241 48.2387 10.0576C46.9457 11.3794 47.0301 14.1154 49.0537 16.183C51.0776 18.2512 53.7554 18.3374 55.0484 17.016C56.3415 15.6947 56.2572 12.9587 54.2333 10.8906C53.0476 9.67911 51.6388 9.15083 50.4144 9.185ZM36.8148 23.9875L0.800781 60.8002C1.69955 63.3634 3.12018 65.3243 6.11181 66.3078L42.1721 29.4482C40.5323 27.5375 38.7419 25.7226 36.8148 23.9875ZM70.2122 26.4861L72.1713 44.6872L77.9424 26.4858L70.2122 26.4861ZM42.4413 42.5986L38.2018 50.3223L57.6974 51.9074L42.4413 42.5986Z" fill="white"/>
</svg>
