<svg width="99" height="101" viewBox="0 0 99 101" fill="none" xmlns="http://www.w3.org/2000/svg">
<path d="M71.8735 5.71185L70.3995 8.72424C85.6313 16.4226 95.6221 32.9907 95.6221 50.563C95.6221 63.282 90.5448 74.8295 82.5194 83.1973V50.563C82.5194 32.154 67.779 17.092 49.7628 17.092C31.7467 17.092 17.0062 32.154 17.0062 50.563V83.1973C8.98086 74.6622 3.90359 63.1147 3.90359 50.563C3.90359 32.9907 13.8944 16.4226 29.1262 8.72424L27.8159 5.71185C11.2738 14.0796 0.62793 31.6519 0.62793 50.563C0.62793 78.1766 22.7386 100.77 49.7628 100.77C76.787 100.77 98.8977 78.1766 98.8977 50.563C98.8977 31.6519 88.2518 14.0796 71.8735 5.71185ZM20.2819 86.377V50.563C20.2819 33.9949 33.5483 20.4391 49.7628 20.4391C65.9774 20.4391 79.2438 33.9949 79.2438 50.563V86.377C71.2184 93.2386 60.9001 97.4225 49.7628 97.4225C38.6256 97.4225 28.3073 93.2386 20.2819 86.377Z" fill="white"/>
<path d="M66.141 50.563H54.6762V23.7862H51.4005V50.563H48.1249V23.7862H44.8492V50.563H33.3844C32.4017 50.563 31.7466 51.2324 31.7466 52.2366V58.9308V75.6663C31.7466 76.1683 31.9104 76.6704 32.4017 77.0051L48.78 90.3935C49.1076 90.5609 49.4351 90.7282 49.7627 90.7282C50.0903 90.7282 50.4178 90.5609 50.7454 90.3935L67.1237 77.0051C67.6151 76.6704 67.7788 76.1683 67.7788 75.6663V58.9308V52.2366C67.7788 51.2324 67.1237 50.563 66.141 50.563ZM35.0222 53.9101H64.5032V57.2572H35.0222V53.9101ZM64.5032 74.8295L51.4005 85.5402V70.6456H54.6762V67.2985H44.8492V70.6456H48.1249V85.5402L35.0222 74.8295V60.6043H64.5032V74.8295Z" fill="white"/>
<path d="M39.9357 10.3978H44.8492V13.7449H48.1248V10.3978H51.4005V13.7449H54.6762V10.3978H59.5896C60.5723 10.3978 61.2275 9.72839 61.2275 8.72426V2.03006C61.2275 1.02593 60.5723 0.356506 59.5896 0.356506H39.9357C38.953 0.356506 38.2979 1.02593 38.2979 2.03006V8.72426C38.2979 9.72839 38.953 10.3978 39.9357 10.3978ZM41.5735 3.70361H57.9518V7.05071H41.5735V3.70361Z" fill="white"/>
<path d="M61.2273 43.8688H57.9517V47.2159H61.2273V43.8688Z" fill="white"/>
<path d="M67.7791 43.8688H64.5034V47.2159H67.7791V43.8688Z" fill="white"/>
<path d="M61.2273 37.1746H57.9517V40.5217H61.2273V37.1746Z" fill="white"/>
<path d="M67.7791 37.1746H64.5034V40.5217H67.7791V37.1746Z" fill="white"/>
<path d="M35.0222 37.1746H31.7466V40.5217H35.0222V37.1746Z" fill="white"/>
<path d="M41.5735 37.1746H38.2979V40.5217H41.5735V37.1746Z" fill="white"/>
<path d="M74.3304 43.8688H71.0547V47.2159H74.3304V43.8688Z" fill="white"/>
<path d="M28.4715 43.8688H25.1958V47.2159H28.4715V43.8688Z" fill="white"/>
<path d="M35.0222 43.8688H31.7466V47.2159H35.0222V43.8688Z" fill="white"/>
<path d="M41.5735 43.8688H38.2979V47.2159H41.5735V43.8688Z" fill="white"/>
<path d="M61.2273 30.4805H57.9517V33.8276H61.2273V30.4805Z" fill="white"/>
<path d="M41.5735 30.4805H38.2979V33.8276H41.5735V30.4805Z" fill="white"/>
</svg>
