<svg width="110" height="112" viewBox="0 0 110 112" fill="none" xmlns="http://www.w3.org/2000/svg">
<g clip-path="url(#clip0_62_1639)">
<path d="M8.27055 74.0853C11.2178 74.0853 13.607 71.6476 13.607 68.6405C13.607 65.6335 11.2178 63.1957 8.27055 63.1957C5.3233 63.1957 2.93408 65.6335 2.93408 68.6405C2.93408 71.6476 5.3233 74.0853 8.27055 74.0853Z" fill="#DEFDFD"/>
<path d="M8.27055 42.0264C11.2178 42.0264 13.607 39.5887 13.607 36.5816C13.607 33.5745 11.2178 31.1368 8.27055 31.1368C5.3233 31.1368 2.93408 33.5745 2.93408 36.5816C2.93408 39.5887 5.3233 42.0264 8.27055 42.0264Z" fill="#DEFDFD"/>
<path d="M8.27055 106.121C11.2178 106.121 13.607 103.684 13.607 100.677C13.607 97.6696 11.2178 95.2319 8.27055 95.2319C5.3233 95.2319 2.93408 97.6696 2.93408 100.677C2.93408 103.684 5.3233 106.121 8.27055 106.121Z" fill="#DEFDFD"/>
<path d="M101.935 74.0853C104.882 74.0853 107.272 71.6476 107.272 68.6405C107.272 65.6335 104.882 63.1957 101.935 63.1957C98.9879 63.1957 96.5986 65.6335 96.5986 68.6405C96.5986 71.6476 98.9879 74.0853 101.935 74.0853Z" fill="#DEFDFD"/>
<path d="M101.935 106.121C104.882 106.121 107.272 103.684 107.272 100.677C107.272 97.6696 104.882 95.2319 101.935 95.2319C98.9879 95.2319 96.5986 97.6696 96.5986 100.677C96.5986 103.684 98.9879 106.121 101.935 106.121Z" fill="#DEFDFD"/>
<path d="M101.935 42.0264C104.882 42.0264 107.272 39.5887 107.272 36.5816C107.272 33.5745 104.882 31.1368 101.935 31.1368C98.9879 31.1368 96.5986 33.5745 96.5986 36.5816C96.5986 39.5887 98.9879 42.0264 101.935 42.0264Z" fill="#DEFDFD"/>
<path d="M71.6433 51.3346H71.0455V43.2464C71.0455 34.2772 63.8933 26.9798 55.1025 26.9798C46.3117 26.9798 39.1596 34.2772 39.1596 43.2464C39.1596 44.3761 40.0674 45.3024 41.1746 45.3024C42.2817 45.3024 43.1896 44.3761 43.1896 43.2464C43.1896 36.5364 48.5482 31.069 55.1247 31.069C61.7011 31.069 67.0597 36.5364 67.0597 43.2464V51.3346H38.5617C35.6831 51.3346 33.3359 53.7294 33.3359 56.6664V78.8749C33.3359 81.8119 35.6831 84.2067 38.5617 84.2067H71.6212C74.4998 84.2067 76.847 81.8119 76.847 78.8749V56.6664C76.847 53.7294 74.5219 51.3346 71.6433 51.3346ZM72.8391 78.8523C72.8391 79.5301 72.3076 80.0723 71.6433 80.0723H38.5617C37.8974 80.0723 37.366 79.5301 37.366 78.8523V56.6438C37.366 55.966 37.8974 55.4238 38.5617 55.4238H71.6212C72.2855 55.4238 72.8169 55.966 72.8169 56.6438V78.8523H72.8391Z" fill="white"/>
<path d="M55.6788 61.9756C54.2174 61.6819 52.6895 62.5179 52.0695 63.9412C51.4273 65.4097 51.8481 67.059 53.1545 68.0304C53.4202 68.2338 53.4645 68.4145 53.4645 68.7082C53.4645 70.1767 53.4645 71.6227 53.4645 73.0912C53.4645 74.2886 54.7045 75.2149 55.9667 74.5597C56.4981 74.2886 56.8081 73.7012 56.7638 73.0912C56.7638 71.6227 56.7638 70.1767 56.7638 68.7082C56.7638 68.3919 56.8302 68.1886 57.1181 67.9853C58.026 67.3075 58.4688 66.3812 58.4688 65.2516C58.4245 63.6249 57.2952 62.2919 55.6788 61.9756Z" fill="white"/>
<path d="M26.472 66.5846H15.334C14.4483 63.4442 11.6362 61.1398 8.27042 61.1398C4.21825 61.1398 0.918945 64.5061 0.918945 68.6405C0.918945 72.7749 4.21825 76.1412 8.27042 76.1412C11.614 76.1412 14.4483 73.8368 15.334 70.6964H26.4941C27.6013 70.6964 28.5091 69.7701 28.5091 68.6405C28.487 67.5109 27.5791 66.5846 26.472 66.5846ZM8.27042 72.0294C6.43255 72.0294 4.94897 70.5157 4.94897 68.6405C4.94897 66.7653 6.43255 65.2516 8.27042 65.2516C10.1083 65.2516 11.5919 66.7653 11.5919 68.6405C11.5919 70.5157 10.1083 72.0294 8.27042 72.0294Z" fill="white"/>
<path d="M26.472 54.5427H14.2712C12.079 54.5427 10.2854 52.7127 10.2854 50.4761V43.7887C13.3633 42.885 15.6219 40.0157 15.6219 36.5817C15.6219 32.4472 12.3226 29.0809 8.27042 29.0809C4.21825 29.0809 0.918945 32.4472 0.918945 36.5817C0.918945 39.9931 3.17753 42.885 6.25541 43.7887V50.4761C6.25541 54.972 9.84258 58.632 14.249 58.632H26.472C27.5791 58.632 28.487 57.7057 28.487 56.5761C28.487 55.4464 27.5791 54.5427 26.472 54.5427ZM4.92683 36.5817C4.92683 34.7065 6.41041 33.1928 8.24828 33.1928C10.0862 33.1928 11.5697 34.7065 11.5697 36.5817C11.5697 38.4568 10.0862 39.9705 8.24828 39.9705C6.41041 39.9705 4.92683 38.4568 4.92683 36.5817Z" fill="white"/>
<path d="M26.4718 78.6264H14.271C9.86455 78.6264 6.27738 82.2864 6.27738 86.7823V93.4697C3.1995 94.3734 0.940918 97.2427 0.940918 100.677C0.940918 104.811 4.24023 108.177 8.2924 108.177C12.3446 108.177 15.6439 104.811 15.6439 100.677C15.6439 97.2653 13.3853 94.3734 10.3074 93.4697V86.7823C10.3074 84.5457 12.101 82.7157 14.2932 82.7157H26.5161C27.6232 82.7157 28.5311 81.7894 28.5311 80.6597C28.4868 79.5527 27.579 78.6264 26.4718 78.6264ZM11.5917 100.677C11.5917 102.552 10.1081 104.066 8.27025 104.066C6.43238 104.066 4.9488 102.552 4.9488 100.677C4.9488 98.8016 6.43238 97.2879 8.27025 97.2879C10.1081 97.2879 11.5917 98.8016 11.5917 100.677Z" fill="white"/>
<path d="M101.935 61.1398C98.5919 61.1398 95.7576 63.4442 94.8719 66.5846H83.7118C82.6046 66.5846 81.6968 67.5109 81.6968 68.6405C81.6968 69.7701 82.6046 70.6964 83.7118 70.6964H94.8719C95.7576 73.8368 98.5698 76.1412 101.935 76.1412C105.988 76.1412 109.287 72.7749 109.287 68.6405C109.287 64.5061 105.988 61.1398 101.935 61.1398ZM101.935 72.0294C100.098 72.0294 98.614 70.5157 98.614 68.6405C98.614 66.7653 100.098 65.2516 101.935 65.2516C103.773 65.2516 105.257 66.7653 105.257 68.6405C105.279 70.5157 103.773 72.0294 101.935 72.0294Z" fill="white"/>
<path d="M103.95 93.4697V86.7823C103.95 82.2864 100.363 78.6264 95.9567 78.6264H83.7338C82.6266 78.6264 81.7188 79.5527 81.7188 80.6823C81.7188 81.812 82.6266 82.7382 83.7338 82.7382H95.9567C98.1489 82.7382 99.9424 84.5682 99.9424 86.8049V93.4923C96.8646 94.396 94.606 97.2653 94.606 100.699C94.606 104.834 97.9053 108.2 101.957 108.2C106.01 108.2 109.309 104.834 109.309 100.699C109.287 97.2653 107.028 94.3734 103.95 93.4697ZM101.935 104.088C100.097 104.088 98.6139 102.575 98.6139 100.699C98.6139 98.8241 100.097 97.3104 101.935 97.3104C103.773 97.3104 105.257 98.8241 105.257 100.699C105.279 102.552 103.773 104.088 101.935 104.088Z" fill="white"/>
<path d="M83.7339 58.632H95.9569C100.363 58.632 103.95 54.972 103.95 50.4761V43.7887C107.028 42.885 109.287 40.0157 109.287 36.5817C109.287 32.4472 105.988 29.0809 101.935 29.0809C97.8833 29.0809 94.584 32.4472 94.584 36.5817C94.584 39.9931 96.8426 42.885 99.9205 43.7887V50.4761C99.9205 52.7127 98.1269 54.5427 95.9347 54.5427H83.7118C82.6046 54.5427 81.6968 55.469 81.6968 56.5987C81.7189 57.7057 82.6268 58.632 83.7339 58.632ZM98.614 36.5817C98.614 34.7065 100.098 33.1928 101.935 33.1928C103.773 33.1928 105.257 34.7065 105.257 36.5817C105.257 38.4568 103.773 39.9705 101.935 39.9705C100.098 39.9705 98.614 38.4568 98.614 36.5817Z" fill="white"/>
</g>
<defs>
<clipPath id="clip0_62_1639">
<rect width="108.39" height="110.591" fill="white" transform="translate(0.918945 0.613464)"/>
</clipPath>
</defs>
</svg>
