<svg width="40" height="40" viewBox="0 0 40 40" fill="none" xmlns="http://www.w3.org/2000/svg">
<path d="M36.3245 26.5237L36.3765 25.3798L37.4522 24.6288L37.2979 23.3477L35.7278 23.2284L34.4978 21.8262L33.6276 21.5892L33.065 21.4852L33.1332 20.9721L32.4137 20.8707V21.1605L30.6203 20.7164L29.8975 19.6134L30.1933 19.0781L29.057 17.421L28.8619 16.209H28.4016L28.5567 17.3869L29.34 18.599L29.2539 19.0781L28.5899 18.9758L27.7708 17.5779V15.9532L26.9167 15.5432V13.7336L28.503 11.8038L28.4016 10.6505L28.8457 10.3351L28.3163 9.83991L28.3496 8.96877L27.7197 8.40619H25.9612L25.6705 8.7139L23.5694 8.69686L22.8005 8.04648L23.3989 7.62029H24.9349V7.33389L24.218 7.22734L24.68 6.86934L25.6876 6.7142L27.1903 5.68963H29.7858L31.2042 6.11668L31.6824 6.38944L32.1094 6.42354L32.7419 5.80897L33.8807 5.79959C30.2836 2.26133 25.3509 0.0758057 19.9075 0.0758057C14.7335 0.0758057 10.0207 2.04908 6.479 5.28304L6.99043 5.66235L7.32968 5.68878L8.13178 4.87645L9.01826 4.90714L10.1988 5.08273L10.9404 5.45778L18.8795 5.86778L21.0574 6.78921L20.7514 7.05004L19.1361 6.78921L19.1114 7.10119L19.7004 7.50692L18.9315 7.66035V8.12235L17.3452 8.22548L18.548 9.35234L18.7534 10.2746L18.2147 10.5559L16.5235 9.17419V8.53405L16.9335 7.89305L16.6275 7.50948L14.7821 8.73862L13.322 8.60991L12.8361 8.25191L12.2215 9.12305L12.5028 9.68563L14.6278 9.94219L15.4819 10.9156L15.2688 11.1978L14.6031 10.5312L14.2971 10.8636L14.8162 11.5498L14.7054 12.8395L13.339 12.8386L13.2708 13.8794L14.4241 14.5792L14.8247 15.1077L14.2187 15.2705L12.0681 13.6305H11.376L11.4024 14.9628L12.964 16.601L13.0833 17.7884L12.2974 18.4448L10.5057 19.0858L10.6838 19.7515L10.3582 19.9816L9.99254 19.419L10.0445 18.9835L9.40354 18.7789L9.04383 19.2648L9.09583 20.187L10.3582 21.2031L10.4852 21.9702L9.71978 22.48L9.1393 22.4194L8.09598 21.2372L7.89141 22.0572L9.86383 24.8752L9.73512 25.2835L7.30241 22.9539V20.597L5.45869 18.9588L3.98917 18.8181L3.15554 19.1292L2.6407 20.239L2.36538 22.3001L1.86673 23.0229L1.36723 22.9062L0 20.6584C0.348627 31.3567 9.12481 39.9241 19.9067 39.9241C27.6421 39.9241 34.3436 35.5121 37.6449 29.0715L36.1711 27.2252L36.3245 26.5237ZM3.00808 23.4057L2.23155 23.6946L2.01675 23.115L2.46681 22.4791L3.09246 22.6027L3.00808 23.4057ZM17.3359 25.0439L17.8814 25.3679L17.8388 25.9628L18.4116 25.9483L19.027 25.6236L21.2296 26.6226L21.3157 27.8099H21.7768V28.2029H20.8528V27.2286L20.3243 27.2815L19.8282 27.8108L18.461 27.8969L18.444 27.2644H18.8548L18.8369 26.9576L18.2044 26.6251L17.0784 26.4632L16.5576 25.823L17.3359 25.0439ZM14.9074 27.7937L14.9483 27.5576L15.4163 27.4886L15.4546 27.8517L15.1674 27.8202V28.0307H14.7574V28.2106H14.3593V27.8517H14.3857L14.9074 27.7937ZM14.5903 27.6224L14.3218 27.5389V27.3539H14.667L14.5903 27.6224ZM14.4429 25.2264L14.4556 26.8902L14.0806 26.9243V26.36L13.7226 26.2322L13.7899 27.0275H13.3296V25.7804H13.5521L13.541 25.5775L14.4429 25.2264ZM14.1488 27.4281V27.6224L13.963 27.6523V27.8509H13.7072V28.0103L13.3296 28.0503V27.8517L13.5717 27.6224L13.7388 27.4281H14.1488ZM10.4861 24.6391L12.2727 23.6699L12.5088 23.4585L12.7065 22.9258H13.0151L13.1174 23.4517L13.3288 23.5403V25.2272L13.1174 25.3662V25.5903L12.7773 25.898L12.5855 26.3848H11.081L10.4852 25.5963L10.4861 24.6391ZM13.1182 27.6224V27.8517H12.7074V27.6224H13.1182ZM8.95178 27.1101H9.42911V26.9397L9.07026 26.8195L6.56168 23.7466L6.98958 23.4057L8.74976 24.9911L8.73015 25.2494L9.10435 25.7446L10.4716 25.7267L10.5227 26.3583L10.0275 26.4095L9.82292 26.3234L9.87406 27.007L11.1382 26.9738L12.161 27.6233L9.07026 27.4886L8.95178 27.1101ZM18.4482 37.4368L17.7297 37.8323L16.8406 37.736L17.6777 36.8103L18.461 36.8964L18.4482 37.4368ZM19.0261 36.4353L16.5099 36.3466L15.6908 34.543L13.4754 34.6316L10.7426 35.5718V35.0757L11.3069 34.5285L11.3751 31.7284L12.3136 31.0806L13.1566 31.0695L14.7438 29.2599L15.7462 29.1831V29.5582H16.088L16.925 28.37H18.0902L19.0816 28.9658L18.6153 29.4201L18.0638 29.3076L18.1005 30.0551L18.392 30.2307L19.4353 30.3091L19.6578 28.4228L20.2041 28.4484L20.811 29.4883L20.8809 30.9919L21.8007 31.7804L22.047 32.7896L21.4503 34.1526L19.0261 36.4353ZM24.9605 36.1131L24.2794 36.4148L23.6418 36.8333L21.3864 38.215L20.4599 38.3574V37.9346L20.7616 37.6866L22.538 36.4233L23.6486 36.269L24.2462 35.8607L24.3323 34.5532L25.0125 34.5123L25.0244 35.3485L25.3952 35.2752L25.6475 35.7244L24.9605 36.1131Z" fill="white"/>
<path d="M37.9635 12.3254H37.285L36.8128 12.8377L36.7344 13.35L37.0941 13.5418L37.9635 12.3254Z" fill="white"/>
<path d="M38.7188 12.1583L39.1424 12.0569L38.7188 11.6708V12.1583Z" fill="white"/>
<path d="M38.2254 12.1584H38.5016V11.7365H38.3234V11.4927H37.9245H37.5162L36.9255 11.7365L36.813 12.0305L37.2741 12.1584H38.2254Z" fill="white"/>
<path d="M36.5042 10.711L36.6704 10.0572L36.1829 9.94299L35.645 10.1979L35.9783 10.8772L36.5042 10.711Z" fill="white"/>
<path d="M39.7305 12.6477C39.6854 12.5361 39.6419 12.4244 39.5976 12.3127L39.4629 12.4559L39.7109 12.6631L39.7305 12.6477Z" fill="white"/>
<path d="M39.8441 12.9383L39.2841 12.7729H39.2329V13.1437L39.4111 13.402H39.9992C39.9472 13.2477 39.9012 13.0909 39.8441 12.9383Z" fill="white"/>
<path d="M33.7505 6.84291V7.25291H34.7631L34.9711 6.97162V6.96992V6.65198H34.6966H34.2389L34.1997 6.80541H33.7505V6.84291Z" fill="white"/>
<path d="M38.3745 12.5232C38.3745 12.7252 38.3745 13.0039 38.3745 13.0039L38.551 12.9716L38.7581 12.934L39.0667 12.7354V12.3263H38.3745C38.3745 12.3459 38.3745 12.4269 38.3745 12.5232Z" fill="white"/>
<path d="M38.4387 13.2094L38.3747 13.362L38.0662 13.3893L37.9639 13.8368H38.6185L38.7941 13.6603L38.9117 13.5419V13.1438L38.6321 13.1822L38.4387 13.2094Z" fill="white"/>
<path d="M33.7505 8.04642L33.9448 8.27742L34.9566 8.21264C34.9566 8.21264 34.995 7.76514 34.9566 7.76514C34.9183 7.76514 34.4699 7.84185 34.4699 7.84185L33.7505 8.04642Z" fill="white"/>
</svg>
