<svg width="40" height="40" viewBox="0 0 40 40" fill="none" xmlns="http://www.w3.org/2000/svg">
<path d="M40 20C40 8.97193 31.0277 0 20 0C18.1439 0 16.3545 0.273457 14.6478 0.749213L14.608 0.722761C14.5987 0.736174 14.592 0.750703 14.5826 0.765606C6.18259 3.13582 0 10.8507 0 20C0 31.0281 8.97193 40 20 40C21.8572 40 23.6455 39.7265 25.3522 39.2508L25.392 39.2787C25.4013 39.2653 25.4095 39.2508 25.4174 39.2359C33.817 36.8638 40 29.1478 40 20ZM1.99057 20.972H9.19844C9.27035 23.1202 9.51027 25.2333 9.94505 27.2839H3.48937C2.62541 25.3347 2.10942 23.2066 1.99057 20.972ZM38.0091 19.0291H30.8027C30.7293 16.8798 30.4908 14.7663 30.0546 12.7158H36.5106C37.3746 14.6654 37.8906 16.7934 38.0091 19.0291ZM28.8613 19.0291H20.9705V12.7158H28.0718C28.5304 14.7626 28.7853 16.8761 28.8613 19.0291ZM20.972 10.7759V1.99057C21.9146 2.04124 22.84 2.14519 23.7401 2.33444C25.4174 4.93713 26.7094 7.77192 27.5733 10.7759H20.972ZM19.0291 10.7759H12.2784C13.0745 7.8252 14.273 5.02505 15.8438 2.44249C16.8742 2.19846 17.9383 2.04907 19.0291 1.99057V10.7759ZM19.0291 12.7161V19.0295H11.1171C11.1585 16.8813 11.3824 14.7667 11.8063 12.7161H19.0291ZM9.17721 19.0291H1.98946C2.1083 16.793 2.62429 14.6639 3.48826 12.7158H9.83887C9.43874 14.7734 9.21744 16.8839 9.17721 19.0291ZM11.1387 20.972H19.0295V27.2839H11.9267C11.4692 25.237 11.2147 23.1239 11.1387 20.972ZM19.0291 29.2238V38.0091C18.0865 37.9584 17.1596 37.8544 16.261 37.6652C14.5838 35.0625 13.2917 32.2277 12.4263 29.2238C12.4267 29.2238 19.0291 29.2238 19.0291 29.2238ZM20.972 29.2238H27.7213C26.924 32.1744 25.7266 34.9731 24.1559 37.5571C23.1254 37.8027 22.0614 37.9506 20.9705 38.0091V29.2238H20.972ZM20.972 27.2839V20.972H28.884C28.8427 23.1187 28.6187 25.2333 28.1933 27.2839H20.972ZM30.8224 20.972H38.0105C37.8917 23.2081 37.3757 25.3361 36.5117 27.2839H30.1611C30.5613 25.2266 30.7826 23.1161 30.8224 20.972ZM35.4973 10.7759H29.5785C28.8546 8.11318 27.8345 5.56265 26.5104 3.17456C30.2867 4.63983 33.4426 7.33715 35.4973 10.7759ZM13.1211 3.30943C11.8879 5.66399 10.9424 8.16795 10.2796 10.7747H4.50273C6.49181 7.4478 9.50543 4.80525 13.1211 3.30943ZM4.50273 29.2238H10.4227C11.1454 31.8864 12.1655 34.437 13.4892 36.8251C9.71332 35.3598 6.55738 32.6625 4.50273 29.2238ZM26.8785 36.6906C28.1117 34.336 29.0572 31.8321 29.72 29.2253H35.4973C33.5078 32.5518 30.4946 35.1944 26.8785 36.6906Z" fill="white"/>
</svg>
